<?xml version="1.0" encoding="UTF-8"?>
<svg xmlns="http://www.w3.org/2000/svg" xmlns:xlink="http://www.w3.org/1999/xlink" version="1.1" viewBox="0 0 287 165">
  <defs>
    <style>
      :root{
        --start: 1.333s;   /* 32f @24fps */
        --step: 0.08s;
        --dur:  0.30s;
      }

      /* Type-on for letters */
      #Cleverly_Compute_Text > * {
        opacity: 0;
        transform: translateY(0.35em);
        filter: blur(2px);
        animation: typeIn var(--dur) ease-out forwards;
      }
      @keyframes typeIn {
        to { opacity: 1; transform: translateY(0); filter: blur(0); }
      }

      /* Order: Cleverly Compute */
      #First_C   { animation-delay: calc(var(--start) + 0  * var(--step)); }
      #First_L   { animation-delay: calc(var(--start) + 1  * var(--step)); }
      #First_E   { animation-delay: calc(var(--start) + 2  * var(--step)); }
      #V         { animation-delay: calc(var(--start) + 3  * var(--step)); }
      #Second_E  { animation-delay: calc(var(--start) + 4  * var(--step)); }
      #R         { animation-delay: calc(var(--start) + 5  * var(--step)); }
      #Second_L  { animation-delay: calc(var(--start) + 6  * var(--step)); }
      #Y         { animation-delay: calc(var(--start) + 7  * var(--step)); }
      #Second_C  { animation-delay: calc(var(--start) + 8  * var(--step)); }
      #O         { animation-delay: calc(var(--start) + 9  * var(--step)); }
      #M         { animation-delay: calc(var(--start) + 10 * var(--step)); }
      #P         { animation-delay: calc(var(--start) + 11 * var(--step)); }
      #U         { animation-delay: calc(var(--start) + 12 * var(--step)); }
      #T         { animation-delay: calc(var(--start) + 13 * var(--step)); }
      #Last_E    { animation-delay: calc(var(--start) + 14 * var(--step)); }

      /* Fills / styles */
      .st2 { fill: #fff; }
      .st0, .st1 { stroke-miterlimit: 10; }
      .st0 { fill: #f6a4aa; filter: url(#outer-glow-2); stroke: #f6a4aa; }
      .st1 { fill: #86d2da; filter: url(#outer-glow-1); stroke: #86d2da; }
      .st3 { display: none; }

      /* Bulbs hidden initially (animatable) */
      #Blue_Bulb,
      #Pink_Bulb {
        opacity: 0;
        transition: opacity .35s ease-out;
        pointer-events: none;
      }

      /* Fade bulbs on when hovering the whole word */
      #Cleverly_Compute:hover #Blue_Bulb  { opacity: 1; transition-delay: .03s; }
      #Cleverly_Compute:hover #Pink_Bulb  { opacity: 1; transition-delay: .10s; }

      /* Warm-up shimmer — target the same hover container */
      #Cleverly_Compute:hover #Blue_Bulb,
      #Cleverly_Compute:hover #Pink_Bulb {
        animation: lightOn .6s ease-out;
      }
      @keyframes lightOn {
        0%   { opacity: 0; }
        60%  { opacity: 1; }
        80%  { opacity: .78; }
        100% { opacity: 1; }
      }
    </style>

    <filter id="outer-glow-1" x="0" y="0" width="33" height="33" filterUnits="userSpaceOnUse">
      <feOffset dx="0" dy="0"/>
      <feGaussianBlur result="blur" stdDeviation="4.32"/>
      <feFlood flood-color="#79e1e5" flood-opacity="1"/>
      <feComposite in2="blur" operator="in"/>
      <feComposite in="SourceGraphic"/>
    </filter>
    <filter id="outer-glow-2" x="251" y="129" width="36" height="36" filterUnits="userSpaceOnUse">
      <feOffset dx="0" dy="0"/>
      <feGaussianBlur result="blur1" stdDeviation="4.32"/>
      <feFlood flood-color="#f6a4aa" flood-opacity="1"/>
      <feComposite in2="blur1" operator="in"/>
      <feComposite in="SourceGraphic"/>
    </filter>
  </defs>

  <g id="Background" class="st3">
    <rect x="-75.89" y="-34.33" width="423.53" height="232.09"/>
  </g>

  <g id="Cleverly_Compute">
    <!-- Transparent hover capture (ensures :hover always hits) -->
    <rect x="0" y="0" width="287" height="165" fill="transparent" pointer-events="all"/>

    <g id="Cleverly_Compute_Text">
      <path id="Last_E" class="st2" d="M270.56,76.48v5.4h-17.76v16.92h15.96v5.4h-15.96v18.6h17.76v20.7c3.39,1.96,2.12,7-1.86,7-3.06,0-4.99-3.5-3-5.98.27-.34,1.14-.89,1.14-1.26v-15.06h-20.52v-51.54l.18-.18h24.06Z"/>
      <polygon id="T" class="st2" points="238.88 76.48 238.88 82.12 227.48 82.12 227.48 128.2 221.12 128.2 221.12 82.12 209.72 82.12 209.72 76.48 238.88 76.48"/>
      <path id="U" class="st2" d="M181.52,76.48v41.58c0,2.13,3.12,4.32,5.1,4.5,3.86.35,9.78-.15,9.78-5.34v-40.74h6.36v40.27c-.53,9.18-7.1,11.88-15.43,11.46-7.71-.39-12.25-4.51-12.3-12.42v-39.3h6.48Z"/>
      <path id="P" class="st2" d="M145.64,108.04v20.16h-6.48v-51.54l.41-.19c9.15.69,24.7-3.39,25.51,10.14.2,3.29.22,8.13,0,11.4-.19,2.71-1.2,5.59-3.3,7.38-4.36,3.72-10.85,2.39-16.14,2.64ZM145.64,102.64c2.39-.1,4.88.13,7.26,0,3.72-.19,5.57-1.12,5.82-5.1.19-3.05.21-7.65,0-10.69-.14-2.06-.77-3.76-2.86-4.46-.49-.16-1.65-.39-2.13-.39h-8.1v20.64Z"/>
      <polygon id="M" class="st2" points="103.04 76.48 109.88 102.76 116.54 76.48 126.56 76.48 126.56 128.2 120.44 128.2 120.44 82.12 112.64 110.79 106.47 110.81 98.48 82 98.48 128.2 92.6 128.2 92.6 76.66 92.78 76.48 103.04 76.48"/>
      <path id="O" class="st2" d="M64.14,76.52c8.26-.44,15.66,1.21,16.58,10.71-.08,9.34.51,19,.13,28.32-.45,10.93-7.09,13.2-16.99,12.66-6.7-.36-11.32-3.57-12.05-10.51.12-9.56-.57-19.51-.13-29.04.38-8.06,4.54-11.72,12.46-12.14ZM63.3,82.16c-2.54.27-4.65,2.07-5.12,4.6v31.17c.45,2.5,2.67,4.44,5.2,4.64,1.82.14,5.99.19,7.59-.46,1.74-.71,3.12-2.42,3.39-4.29v-30.93c-.35-2.22-2.11-4.08-4.3-4.58-1.48-.33-5.19-.31-6.75-.14Z"/>
      <path id="Second_C" class="st2" d="M44.72,76.48v5.64h-10.74c-2.27,0-5.11,2.64-5.11,4.97l.02,30.83c.14,2.01,2.87,4.63,4.85,4.63h10.98v5.64c-6.43-.34-14.96,1.52-19.68-4.02-1.55-1.82-2.23-4.15-2.52-6.48.12-9.56-.57-19.51-.13-29.04.18-3.82,1.16-7.44,4.41-9.75,5.01-3.56,12.13-2.1,17.92-2.42Z"/>
      <path id="Y" class="st2" d="M153.44,30.52c.11-.1-.47-.85-.12-.96l6.72,14.76,6.3-13.8h4.14l-8.52,17.7v15.66h-4.32v-15.54l-8.52-17.82h4.32Z"/>
      <polygon id="Second_L" class="st2" points="138.92 30.52 138.92 60.28 149.6 60.28 149.6 63.88 134.84 63.88 134.84 30.52 138.92 30.52"/>
      <path id="R" class="st2" d="M110,30.52c3.64.21,7.71-.41,11.28.3,2.53.5,4.45,1.94,5.1,4.5.5,2.01.51,7.61.02,9.63-.54,2.25-1.9,3.58-4.04,4.35l6.6,14.58h-4.38l-6.18-13.8h-4.32v13.8h-4.08V30.52ZM114.08,46.48h5.94c.24,0,1.2-.42,1.44-.6.89-.67,1.08-2,1.15-3.05.09-1.49.17-6.38-.55-7.5-.36-.56-1.5-1.21-2.15-1.21h-5.82v12.36Z"/>
      <polygon id="Second_E" class="st2" points="103.16 30.52 103.16 34 91.64 34 91.64 44.92 101.96 44.92 101.96 48.4 91.64 48.4 91.64 60.4 103.16 60.4 103.16 63.88 87.56 63.88 87.56 30.52 103.16 30.52"/>
      <polygon id="V" class="st2" points="66.8 30.52 72.02 59.56 77.72 30.52 81.68 30.52 74.73 63.83 69.15 63.89 62.6 30.52 66.8 30.52"/>
      <polygon id="First_E" class="st2" points="58.04 30.52 58.04 34 46.52 34 46.52 44.92 56.84 44.92 56.84 48.4 46.52 48.4 46.52 60.4 58.04 60.4 58.04 63.88 42.44 63.88 42.44 30.52 58.04 30.52"/>
      <polygon id="First_L" class="st2" points="27.08 30.52 27.08 60.28 37.76 60.28 37.76 63.88 23 63.88 23 30.52 27.08 30.52"/>
      <path id="First_C" class="st2" d="M17.84,33.88c-.24.03-.53-.05-.76,0-.1.02-.03.22-.25.25-3.5.46-9.78-1.66-10.15,3.77-.43,6.13.32,12.77.02,18.95.03,1.64,1.77,3.43,3.41,3.43h6.9v3.6c-4.24-.21-9.98,1.02-12.94-2.84-.86-1.12-1.36-2.78-1.46-4.18-.46-6.2.34-12.94,0-19.2.21-2.43,1.16-4.66,3.33-5.91,2.69-1.55,6.04-1.17,9.04-1.22v-11.46c-1.74-1.01-2.17-3.4-.54-4.74,2.45-2.01,6.07.61,4.54,3.58-.22.43-1.13,1.07-1.13,1.15v14.82Z"/>
    </g>

    <!-- Bulbs -->
    <path id="Blue_Bulb" class="st1" d="M18.92,16.65c-.02.71-.33,1.21-.4,1.32-.44.69-1.25,1.23-2.2,1.22-.95,0-1.58-.55-1.77-.73-.19-.17-.8-.8-.83-1.8,0-.22,0-1.08.64-1.78.74-.8,1.75-.79,1.99-.79.2,0,1.38.01,2.09.95.5.65.49,1.38.48,1.62Z"/>
    <path id="Pink_Bulb" class="st0" d="M272.58,146.67c-.03,1.1-.5,1.87-.61,2.04-.67,1.06-1.93,1.89-3.39,1.88-1.46,0-2.43-.85-2.72-1.12-.29-.27-1.23-1.24-1.28-2.78-.01-.34-.01-1.66.99-2.75,1.14-1.24,2.69-1.22,3.07-1.22.31,0,2.12.02,3.22,1.46.77,1,.75,2.13.74,2.49Z"/>
  </g>
</svg>
