<?xml version="1.0" encoding="UTF-8"?>
<svg id="Layer_1" xmlns="http://www.w3.org/2000/svg" version="1.1" viewBox="0 0 246.21 292.14">
  <!-- Generator: Adobe Illustrator 29.8.1, SVG Export Plug-In . SVG Version: 2.1.1 Build 2)  -->
  <defs>
    <style>
      .st0, .st1, .st2, .st3, .st4, .st5, .st6, .st7, .st8, .st9, .st10, .st11, .st12, .st13, .st14, .st15, .st16, .st17, .st18, .st19, .st20, .st21, .st22, .st23, .st24, .st25 {
        stroke: #0e2840;
      }

      .st0, .st1, .st2, .st3, .st26 {
        fill: #86d2da;
      }

      .st0, .st10, .st16, .st20, .st22 {
        stroke-miterlimit: 10;
        stroke-width: .75px;
      }

      .st1, .st9 {
        stroke-miterlimit: 10;
        stroke-width: .75px;
      }

      .st2, .st11, .st15, .st23 {
        stroke-miterlimit: 10;
        stroke-width: .75px;
      }

      .st3, .st4, .st27, .st5, .st6, .st7, .st8, .st28, .st12, .st13, .st17, .st18, .st29, .st21, .st24, .st25, .st30 {
        stroke-miterlimit: 10;
      }

      .st3, .st27, .st6, .st8, .st28, .st12, .st13, .st17, .st18, .st29, .st21, .st24, .st25, .st30 {
        stroke-width: .75px;
      }

      .st4, .st14, .st15, .st16, .st17, .st29, .st31 {
        fill: #0e2840;
      }

      .st32 {
        stroke-miterlimit: 10;
        stroke-width: .75px;
      }

      .st32, .st27, .st28, .st29, .st30 {
        stroke: #022841;
      }

      .st32, .st27, .st21 {
        fill: none;
      }

      .st5, .st22, .st23, .st24, .st33 {
        fill: #21526f;
      }

      .st34, .st13 {
        fill: #f5a4aa;
      }

      .st6, .st28 {
        fill: #87d2da;
      }

      .st35, .st8, .st9, .st10, .st11, .st30 {
        fill: #c0bdbe;
      }

      .st7 {
        fill: #0e2841;
      }

      .st12, .st36 {
        fill: #fff;
      }

      .st14 {
        stroke-miterlimit: 10;
        stroke-width: 1px;
      }

      .st18, .st19, .st20 {
        fill: #f6a4aa;
      }

      .st19 {
        stroke-miterlimit: 10;
        stroke-width: .75px;
      }

      .st37 {
        opacity: .45;
      }

      .st25 {
        fill: #022841;
      }
    </style>
  </defs>
  <path class="st37" d="M148.25,274.02c-.05,7.55-27.3,14.05-47.23,15.49-32.48,2.34-68.65-7.12-68.64-15.87,0-8.22,31.92-16.24,58.52-16.13,26.78.11,57.41,8.49,57.36,16.51Z"/>
  <g id="Head">
    <path class="st36" d="M117,8.64c1.53-1.48,2.95-2.34,3.53-2.68,2.11-1.22,4.2-2.43,6.71-2.05,1.87.29,3.11,1.33,3.88,1.98,2.35,1.97,3.2,4.46,4.02,6.99,1.12,3.44,1.31,6.2,1.48,8.82.19,2.95.36,6-.42,9.95-.64,3.24-1.61,5.44-2.68,7.91-.28.64-1.76,3.97-4.38,6.71-.48.5-1.18,1.18-2.25,1.41-.69.15-1.57.13-3.4-.71-2.27-1.04-3.81-2.34-4.45-2.89-1.39-1.22-2.39-2.46-4.38-4.94-2.19-2.72-3.01-4.08-3.39-4.73-.68-1.16-1.16-2.18-1.48-2.89.06-.93.17-2.27.35-3.88.27-2.35.58-5.06,1.41-8.4.77-3.12,1.19-4.75,2.4-6.78.45-.75,1.42-2.25,3.04-3.81h0Z"/>
    <path class="st27" d="M132.03,6.88c-.88-1.18-1.56-1.87-2.54-2.33-.35-.17-1.39-.61-3.32-.49-2.94.17-5.1,1.47-6.49,2.33-1.39.85-3.52,2.2-5.15,4.8-.74,1.19-1.08,2.14-1.62,3.74-.88,2.57-1.29,4.72-1.76,7.76-.38,2.45-.81,5.55-1.2,9.18.08.2.2.5.35.85,0,0,.39.88.92,1.76,1.22,2.06,3.04,4.24,3.04,4.24,2.6,3.12,3.91,4.67,5.44,5.93,1.03.85,2.25,2.11,4.24,2.82,1.7.61,2.63.42,2.89.35.98-.23,1.69-.83,2.82-2.19,2.04-2.44,3.21-4.66,3.53-5.29.58-1.14,1.55-3.03,2.33-5.72.75-2.58.96-4.6,1.13-6.28.1-1.05.37-4.15,0-8.26-.21-2.37-.37-4.08-1.06-6.35-.13-.43-1.12-3.6-3.53-6.85h-.02Z"/>
  </g>
  <g id="Hair">
    <g>
      <g id="Layer_4">
        <path class="st34" d="M91.49,100.09l.18,1.47c-.05.06-.08.12-.13.17-.02.03-.05.06-.07.09-.42.59-.97,1.28-1.65,2.05-.41.45-.96,1.08-1.69,1.78,0,.01-.02.01-.03.02-.26.24-.52.49-.82.75-.76.67-1.46,1.27-2.51,1.89-.45.28-.88.5-1.32.69h0c-.85.38-1.73.67-2.84,1.01-1.08.34-1.99.58-3.01.82h-.03c-3.26.76-4.36.84-7.14,1.42-2.12.45-3.4.71-4.81,1.16h-.01c-.11.04-.22.08-.33.12-.08.03-.16.06-.24.08s-.16.05-.24.08c-.14.05-.32.1-.49.18-.24.08-.52.19-.81.31-.04.02-.08.02-.11.03-1.2.5-2.76,1.22-4.49,2.24-1.42.85-3.42,2.06-5.55,4.22-1.1,1.11-2.52,2.56-3.67,4.88-.47.92-1.02,2.05-1.31,3.55,0,.02,0,.05-.01.08-.04.21-.07.41-.08.61,0,.02,0,.04-.01.07-.02.24-.05.46-.05.67,0,.06,0,.13,0,.19-.05,1.66.32,3.01.72,4.48.29,1.04.88,2.91,2.1,4.97.56.95,1.19,2,2.33,3.15,1.36,1.37,2.7,2.08,3.87,2.71,1.37.74,2.06,1.11,3.12,1.31.73.14,2.48.45,4.33-.43.44-.21,2.98-1.41,3.24-3.84.15-1.38-.52-2.48-.69-2.75-.22-.35-.77-1.2-1.85-1.67-.26-.11-.74-.32-1.34-.33-.02,0-.04,0-.06,0-.05,0-.12,0-.17.01-.17,0-.35.04-.54.09-1.08.31-1.62,1.22-1.84,1.62-.38.63-.48,1.2-.55,1.65-.1.6-.18,1.69.23,3.06-.49-.28-1.23-.77-1.89-1.61-.86-1.09-1.14-2.17-1.28-2.73-.12-.49-.47-2.11.09-4.09.19-.65.69-2.13,2.02-3.48.4-.41,1.16-1.17,2.37-1.69,1.84-.77,3.52-.47,4.15-.35,1.55.3,2.75,1.02,3.62,1.73.06.04.09.07.13.11.61.52,1.04,1,1.31,1.31,1.11,1.27,1.79,2.66,2.19,3.96,0,.03.02.06.03.09,0,0,0,.02.01.03.4,1.09,1.01,3.2.7,5.84-.08.72-.4,2.93-1.82,5.23-1.63,2.63-4.04,4.3-5.65,5.42-.13.09-.23.16-.3.21,0,.01-.03.01-.04.02-1.3.71-3.65,1.77-6.74,1.92-3.49.15-6.07-.96-7.99-1.8-.9-.4-4.24-1.95-7.51-5.37-3.57-3.74-5.04-7.63-6.19-10.69-1.4-3.74-1.92-6.96-2.14-8.83l-.02-.15c-.02-.19-.04-.35-.05-.51-.14-1.47-.5-6.23.86-12.14.19-.82.91-3.88,2.6-7.64,1.14-2.55,2.36-4.65,3.41-6.25.4-.07,1.2-.22,1.6-.29,3.58-.66,3.94-.74,4.26-.81.43-.1.94-.24,1.66-.47.04,0,.08-.02.12-.04.6-.18,1.31-.42,2.23-.7.94-.29,1.73-.55,2.42-.78.01,0,.02,0,.03-.01.94-.31,1.69-.57,2.35-.82h.02c.26-.09.66-.22,1.1-.43,2.34-1.14,2.78-2.94,3.64-2.83.76.1.79,1.57,1.9,3.77,0,0,.86,1.87,2.64,3.65,1.1,1.1,3.11,3.11,6.29,4.01,4.42,1.26,8.26-.41,10.17-1.25,2.64-1.15,4.53-2.74,5.35-3.44,1.2-1.02,2.1-2.01,2.75-2.78h-.01Z"/>
      </g>
      <path class="st36" d="M65.84,82.85c-.41.73-.94,1.78-1.41,3.08-.82,2.27-1.06,4.13-1.25,5.68-.15,1.28-.28,2.96-.22,4.96-.63.4-1.59.98-2.79,1.61-1.5.79-5.41,2.71-12.12,4.1-4.27.88-4.4.47-8.86,1.38-3.95.82-5.98,1.19-8.1,2.19-1.21.57-4.34,2.19-7.23,5.52-1.49,1.72-3.84,4.41-4.61,8.63-.15.82-.61,3.71.37,7.2,1.94,6.95,8.25,11.53,13.99,12.92,1.25.3,2.31.41,2.97.46-.59.43-1.47.98-2.58,1.51-.74.34-2.52,1.11-5.57,1.51-2,.25-5.11.65-9-.31-1.68-.42-5.62-1.46-9.19-4.92-3.13-3.03-4.32-6.34-4.85-7.85-1.37-3.96-1.22-7.26-1.11-9.05.3-5.12,2.05-8.79,3.14-10.99.51-1.04,2.61-5.2,6.84-9.36,1.14-1.12,3.2-3.11,6.41-4.97,2.74-1.57,5.09-2.36,6.52-2.82,1.09-.36,2.7-.86,4.86-1.19,2.44-.37,4.28-.31,4.89-.3,3.59.05,6.98-1.22,14.67-3.97,2.85-1.02,7.6-2.71,14.24-5.04h-.01Z"/>
      <g id="Layer_7">
        <path class="st26" d="M65.19,83.68c-.7,1.03-1.62,2.6-2.25,4.68-.45,1.47-1.45,4.92-.28,8.99,1.45,5.08,5.27,7.71,6.41,8.47.73.48,3.46,2.22,6.89,2.59,1.71.18,7.37.43,15.94-7.63,15.59-14.66,19.71-36.94,19.34-45.68-.04-.73-.34-6.88-1.08-14.95-.18-1.93-.35-3.53-.46-4.58-.88,0-2.14-.14-3.49-.77-3.02-1.43-4.16-4.49-4.78-6.13-.41-1.09-.95-2.9-.94-5.26-.5-1.17-1.01-2.32-1.52-3.48-.25-.58-.51-1.17-.77-1.76-.69.82-1.46,2-1.43,3.42.02.73.23.81.47,2.19.24,1.33.25,2.35.25,3.79,0,1.28-.05,2.25-.07,2.5-.05.64-.26,3.41-1.16,6.42-1.27,4.25-3.26,7.15-3.94,8.1-1.15,1.61-1.28,1.41-4.19,4.84-2.93,3.45-3,3.91-4.23,5.26-3.97,4.35-8.98,6.01-10.78,6.6-3.8,1.25-3.57.23-10.99,1.58-3.02.55-6.81,1.26-11.45,3.05-2.25.87-4.91,1.9-8.03,3.97-2.06,1.37-4.3,2.87-6.43,5.64-2.38,3.12-3.26,6.1-3.7,7.63-1.04,3.67-1.05,6.89-.85,9.08,1.43.03,3.66-.02,6.35-.35,5.09-.62,8.31-1.87,16.08-4.51,2.45-.83,6.28-2.12,11.07-3.68h.03Z"/>
      </g>
      <path class="st36" d="M98.28,18.23c.03.58.16,1.03.41,1.9.29.99.76,2.3,1.51,3.77.02-.63.09-1.5.37-2.51.2-.73.56-2.05,1.6-3.41.38-.5,1.29-1.66,2.91-2.45,2.09-1.02,4.05-.76,5.08-.62,1.98.28,3.31,1.04,3.59,1.2.74.44,1.29.92,1.65,1.29.1-.66.3-1.58.72-2.63.15-.36.66-1.59,2.05-3.38.69-.89,1.91-2.46,3.99-4,1.37-1.01,3.05-2.25,5.56-2.78.81-.17,1.51-.23,1.99-.24-1.51-.65-2.82-1.08-3.8-1.37-1.22-.36-2.23-.66-3.61-.83-.38-.05-1.49-.17-3.17-.09-.87.04-3.4.24-6.78,1.28-2.37.74-4.12,1.27-6.09,2.69-1.94,1.4-3.14,2.97-4.18,4.32-1.18,1.55-1.82,2.68-2.44,3.83-1.17,2.16-1.36,3.13-1.33,4.02l-.04.02Z"/>
      <path class="st36" d="M97.24,23.77v.06c.06.41.11.84.13,1.31.05.72.1,1.53.13,2.42,0,.11,0,.21,0,.33.07,2.8-.14,6.3-1.55,10.12-.22.6-.97,2.58-2.53,5.05,0,.02-.03.05-.03.07-.62.98-1.36,2.02-2.24,3.09-.33.4-.66.79-1,1.15-.04.04-.07.08-.11.12-2.3,2.47-4.51,4.01-5.76,4.8-.73.46-3.43,2.12-8.95,3.79-2.99.9-4.66,1.14-8.48,1.79h-.03s-.04,0-.06.01c-.89.14-1.91.32-3.09.53-7.85,1.38-11.78,2.06-14.7,3.15-1.12.41-2.64.98-4.4,1.85-.03.01-.05.03-.08.04-.02,0-.04.02-.06.03-1.99,1-4.3,2.39-6.64,4.37-1.92,1.62-5.03,4.62-7.54,9.15-.61,1.09-1.18,2.12-1.63,3.19-.02.03-.02.06-.04.09,0,.01,0,.03-.02.04-.02.06-.05.1-.07.16-.22.6-.51,1.45-.75,2.48-.27,1.17-.63,2.73-.48,4.63,0,0,.05.54.85,4h0s-.29-.12-.74-.31h0c-1.72-1.06-4.81-4.46-6.6-8.79-.94-2.28-1.37-4.44-1.53-6.33l-.03-.24c-.18-2.23.01-4.03.13-5.05.67-5.99,3.32-10.19,4.67-12.07.15-.21.3-.41.45-.61l.02-.02c3.46-4.5,7.48-6.62,9.38-7.6.16-.08.33-.17.49-.24.14-.06.28-.13.42-.2.07-.03.11-.06.11-.06,4.17-2.15,10.14-3,10.14-3,2.97-.43,5.23-.45,7.26-.48,5.3-.05,5.8.54,11.11.46.75,0,3.76-.07,7.62-.59,3.15-.42,4.62-.85,5.54-1.16,1.89-.63,3.39-1.4,4.43-2.01.69-.41.7-.41.02-.01-1.02.6,0-.01.02-.01,2.71-1.7,4.72-3.89,7.3-6.69,1.56-1.7,3.68-4.05,5.51-7.38h0c.6-1.07,1.15-2.24,1.65-3.5.56-1.43.99-2.8,1.29-4.08h0c.04-.15.07-.28.1-.42,0,.05.02.1.03.17.11.65.24,1.48.33,2.45h-.01Z"/>
      <path class="st26" d="M40.81,91.04c-1.91.39-3.26.55-4.63.55,1.63-.13,3.17-.31,4.63-.55Z"/>
      <path class="st26" d="M50.18,66.22c-.18.08-.36.15-.55.23-1.15.47-2.24.92-3.29,1.4,1.24-.64,2.51-1.17,3.84-1.62Z"/>
      <path class="st26" d="M52.28,87.59c2.46-.97,4.38-1.7,5.9-2.26-.35.14-.6.23-.64.25-2.07.8-3.79,1.46-5.26,2.01Z"/>
      <path class="st26" d="M98.88,42.68c.38,1.74.8,4.15.87,7.07,0,.57.08,4.51-.79,8.25-.72,3.11-2.13,6.37-7.71,13.49-3.94,5.05-7.16,9.17-12.6,14.09-3.62,3.27-8.66,7.29-15.24,11.12.09.79.31,1.93.88,3.19.18.4.87,1.9,2.64,3.65,1.1,1.1,3.11,3.11,6.29,4.01,4.42,1.26,8.26-.41,10.17-1.25,2.64-1.15,4.53-2.74,5.35-3.44,1.2-1.02,2.1-2.01,2.75-2.78,0,.07.03.19.04.32.08,2.18-3.76,3.96-6.81,5.34-3.55,1.61-5.33,2.41-7.46,2.5-.79.03-4.48.12-8.03-2.2-3.7-2.4-5.34-6.15-6.04-9.23-.09-.37-.16-.73-.22-1.07-.39-2.25-.32-3.96-.31-4.22.22-3.85,1.72-6.79,2.86-8.57.13-.22.27-.41.39-.6,9.04-4.9,14.46-11.05,18.4-15.6,4.17-4.81,10.07-12.76,14.57-24.09Z"/>
      <path class="st26" d="M97.51,28.31c0-.15,0-.3,0-.42.07,2.8-.14,6.3-1.55,10.12-.22.6-.97,2.58-2.53,5.05.15-.24.29-.5.42-.76.38-.7,2.01-3.81,2.96-8.33.31-1.43.69-3.24.7-5.66Z"/>
      <path class="st26" d="M97.5,27.56c-.05-1.56-.25-2.22-.25-3.73.05.41.1.84.12,1.31.05.72.1,1.53.13,2.42Z"/>
      <path class="st26" d="M98.39,17.64s-.03.31-.05.81c-.06.13-.13.27-.19.42-.17.36-.31.65-.44.92.28-1.33.61-2.14.68-2.15Z"/>
      <path class="st26" d="M100.67,26.52c.13.66.28,1.36.51,2.1-.37-1-.69-2.29-.77-3.79.05.5.13,1.07.26,1.69Z"/>
      <path class="st26" d="M109.32,35.99c-.67-.18-2.55-.76-4.42-2.25.45.31.85.53,1.12.69,1.23.7,2.36,1.03,3.14,1.21.06.11.1.23.16.35Z"/>
      <path class="st26" d="M111.44,46.11c.03.79.04,1.73.01,2.79v.02c0,.22-.02.46-.03.7-.01-.17,0-.34-.02-.52-.02-.58-.04-1.13-.07-1.66,0-.03,0-.07,0-.11-.14-2.67-.32-4.93-.87-7.48-.17-.77-.42-1.81-.8-3.04.34.84.69,1.85.99,3.02.61,2.39.7,4.29.77,6.27Z"/>
      <path class="st27" d="M91.67,101.55c-.53.74-1.15,1.52-1.85,2.32-.58.65-1.14,1.25-1.69,1.78,0,.01-.02.01-.03.02-.29.25-.59.51-.91.76-.62.49-2.06,1.65-3.74,2.57h0c-.06.03-.11.07-.17.09-2.01,1.08-3.63,1.44-5.68,1.74h-.03c-1.21.2-2.59.36-4.29.68-1.45.26-4.42.81-7.66,1.9h0c-.11.03-.22.08-.33.12-.08.03-.16.06-.24.08-.08.03-.16.06-.24.08-.06.03-.13.06-.19.08-.1.03-.19.07-.29.1-.26.11-.53.2-.81.31-.04.02-.08.02-.11.03-2.98,1.13-6.75,2.79-10.1,6.32-1.75,1.83-4.21,4.42-4.92,8.57,0,.02,0,.05-.01.08-.04.21-.07.41-.08.61-.03.25-.06.49-.07.74,0,.06,0,.13,0,.19-.19,3.78,1.27,6.73,1.96,8.12.7,1.4,2.63,5.16,6.88,7.32,1.4.72,3.53,1.8,6.13,1.24.26-.05.84-.2,1.51-.48.05,0,.1-.03.14-.06.12-.06.25-.12.37-.17.09-.04.18-.09.27-.15,1.04-.56,2.09-1.47,2.43-2.9.34-1.45-.14-3.16-1.31-4.22-.2-.18-1.25-1.14-2.53-1.09-.02,0-.04,0-.06,0-.05,0-.12,0-.17.01-.11.01-.24.03-.35.06-1.58.43-2.14,2.28-2.25,2.67-.64,2.11.46,3.76.09,3.97-.48.26-2.95-1.88-3.59-4.93-.5-2.35.06-5.36,2.27-7.45.29-.28,2.62-2.42,5.91-2.11,1.81.16,3.23,1,4.31,2,.06.04.09.07.13.11,1.11,1.05,1.88,2.24,2.37,3.02.22.36.7,1.15,1.13,2.25,0,.03,0,.06.03.09v.03c.59,1.59,1.09,3.79.69,6.36-.53,3.46-2.38,5.67-3.34,6.79-.43.51-1.95,2.2-4.42,3.55,0,.01-.03.01-.04.02-1.01.56-2.18,1.05-3.49,1.39-6.86,1.76-12.7-2.01-14.54-3.19-5.73-3.71-8.03-9-9.76-12.95-1.57-3.62-2.39-7.06-2.79-10.05l-.02-.15c-.53-4.08-.28-7.27-.11-8.77.95-8.82,4.8-15,6.78-17.76-.63,0-1.34,0-2.15.06h-.03c-1.46.1-3.19.33-5.08.83-2.2.59-6.37,1.74-10.11,5.23-1.31,1.22-4.61,4.27-5.82,9.05-.05.14-.08.29-.12.43-.02.07-.04.14-.05.21-.04.16-.08.33-.11.49-.1.56-.18,1.14-.21,1.75-.33,5.55,2.48,9.61,3.55,11.12,2.41,3.36,5.28,5.05,6.26,5.6,3.23,1.76,6.22,2.14,7.84,2.22-.11.09-.22.18-.34.27-.31.24-.66.5-1.05.76-.04.03-.07.05-.11.07-.05.03-.1.06-.15.09-.86.57-1.93,1.15-3.19,1.59-2.56.92-4.91,1.01-7,.81h-.02s-.02,0-.03,0c-1.2-.12-2.31-.32-3.32-.52-2.87-.56-6.32-1.22-9.52-3.46-.01,0-.03-.02-.06-.04-.74-.51-1.47-1.12-2.17-1.83-1.66-1.67-2.77-3.48-3.49-5.18-.04-.08-.07-.15-.1-.23-.89-2.08-1.25-3.99-1.51-5.32-.91-4.76-.2-8.8.59-11.65,0-.02.01-.05.02-.08.23-.83.46-1.57.67-2.18.64-1.94,2.17-5.92,5.54-10.03,1.04-1.28,4.38-5.17,10.14-8.22,3.89-2.06,7.46-2.98,9.94-3.41l-.07-.59c-.15-1.66-.16-3.94.41-6.55,0-.02,0-.05.02-.08.01-.14.04-.27.08-.41,1.49-6.19,5.28-9.95,6.77-11.38,2.42-2.34,4.81-3.7,7.43-4.88.02-.01.04-.02.06-.03,1.05-.48,2.14-.93,3.29-1.4.19-.08.37-.15.55-.23.03-.01.06-.02.09-.03,5.6-2.19,10.75-3.02,13.63-3.48,4.87-.77,5.99-.45,9.36-1.55,1.81-.59,5.38-1.73,8.79-4.67,1.3-1.12,3.19-3.03,4.81-5.94"/>
      <path class="st27" d="M91.47,101.82c1.33-1.4,3.13-3.42,5.07-5.99,1.15-1.54,6-8.08,9.91-18.2.78-2.01,3.89-10.17,4.67-18.13.48-4.86.28-10.4.28-10.4-.04-1.06-.09-1.94-.13-2.52"/>
      <path class="st27" d="M31.63,91.76c1.11.01,2.69-.01,4.56-.17,1.63-.13,3.17-.31,4.63-.55h.07c1.66-.28,3.22-.62,4.73-1.04,0,0,.03,0,.04-.02,3.94-.99,7.21-1.97,9.67-2.76,3-.96,4.69-1.61,6.28-2.3,1.77-.77,3.2-1.5,4.24-2.07,5.16-3.33,11.92-8.48,18.46-16.08,7.72-8.98,12.1-17.87,14.57-24.09.38,1.74.8,4.15.87,7.07,0,.57.08,4.51-.79,8.25-.72,3.11-2.13,6.37-7.71,13.49-3.94,5.05-7.16,9.17-12.6,14.09-1.12,1.02-2.4,2.11-3.8,3.25-4.75,3.84-8.98,6.16-11.44,7.87-.1.06-.56.39-1.19.78-.49.3-.91.56-1.44.83-.42.21-.99.46-1.72.7"/>
      <path class="st26" d="M93.54,99.39"/>
      <path class="st27" d="M42.8,103.32c2.82-.56,5.79-1.24,8.9-2.09,2.71-.74,5.27-1.53,7.68-2.34"/>
      <path class="st27" d="M96.54,35s.84-3.81.68-8.5c-.01-.36-.02-.62-.03-.74-.07-1.74-.23-3.19-.38-4.24-.09.17-.21.4-.35.67,0,0-.31.59-.56,1.14-.69,1.5-1.36,3.4-1.36,3.4-.38,1.12-1.08,2.82-2.47,5.28-1.43,1.87-2.72,3.4-3.75,4.55-1.46,1.65-2.51,2.84-4.11,4.23-1.25,1.08-2.37,1.91-3.19,2.46-.55.37-.55.37-.02.01-.45.2-.89.4-1.29.57-1.34.58-3.06,1.23-5.25,1.82h-.05c-1.93.52-4.19.98-6.87,1.27-4.52.5-6.55.15-9.12-.15h-.01c-1.83-.21-3.94-.39-7.44-.21-4.74.24-9.91.56-15.73,3.32-.12.06-.24.11-.35.17-.04,0-.07.04-.11.06-.14.07-.28.14-.42.2-4.26,2.18-6.87,4.7-7.57,5.39-.64.64-1.45,1.45-2.3,2.45h-.01c-1.73,2.05-3.61,4.9-4.68,8.76-.94,3.44-.92,6.56-.59,8.99l.03.24c.29,2.07.77,3.62,1.04,4.45,1.62,4.93,4.4,8.03,5.06,8.74.71.77,1.41,1.4,2.02,1.92.01,0,.01,0,.01,0,.32.27.61.5.88.7-.05-.12-.09-.24-.14-.38-.55-1.56-1.16-4.08-.77-7.07.18-1.52.59-2.82,1.15-4.05.01-.05.04-.1.07-.16,0-.01.02-.03.02-.04.55-1.19,1.24-2.31,1.99-3.52.85-1.37,3.04-4.72,6.96-8.22,1.31-1.19,3.61-3.2,6.9-5.06.02,0,.04-.03.06-.03,1.53-.87,3.28-1.7,5.26-2.39,1.69-.6,4.13-1.04,8.93-1.89,3.82-.68,6.27-1.05,8.07-1.29.02-.01.05-.02.07,0h.02c2.71-.38,3.95-.49,6.28-1.08,3.93-1.01,8.89-2.29,13.74-6.25,0-.01.02-.01.03-.02.8-.66,1.93-1.67,3.14-3.03,1.65-1.86,5.13-6.27,6.51-12.49h0Z"/>
      <path class="st26" d="M118.87,22.12c.45,1.15,1.8,4.68,0,8.37-.18.36-2.2,4.36-6.7,5.14-4.98.87-8.5-3-9.11-3.7-2.79-3.2-3.97-8.46-1.49-12.63.15-.25,2.94-4.77,7.85-4.85,6.33-.09,9.32,7.33,9.45,7.65h0Z"/>
      <path class="st35" d="M116.21,24.16c.44,2.54-.28,6.21-3.1,7.58-2.62,1.27-5.4-.26-5.86-.51-3.37-1.85-3.83-5.62-3.87-6.01-.07-.62-.47-4.46,2.34-6.42,2.59-1.81,5.75-.5,6.2-.31,3.51,1.52,4.22,5.3,4.28,5.66Z"/>
      <path class="st27" d="M116.17,27.46c-.06.26-.87,3.43-3.79,4.45-2.91,1.03-5.54-.89-6.11-1.33-2.76-2.17-4.26-6.73-2.14-9.97,1.09-1.66,3.1-2.92,5.24-2.88,4.32.1,7.78,5.55,6.79,9.71h.01Z"/>
      <ellipse class="st33" cx="109.64" cy="25.03" rx="3.72" ry="4.4" transform="translate(2.18 58.17) rotate(-30)"/>
      <ellipse class="st32" cx="109.73" cy="24.98" rx="3.84" ry="4.55" transform="translate(.62 52.54) rotate(-27)"/>
      <path class="st31" d="M111,24.54c.45.89.23,1.9-.47,2.26s-1.66-.06-2.11-.95-.23-1.9.47-2.26,1.66.06,2.11.95Z"/>
      <path class="st27" d="M111.33,51.3l.15-.02c0-.4-.02-.95-.04-1.62v-.04c-.3-2.37-.41-5.1-.41-5.1-.05-1.27-.33-3.51-1.35-7.71,0-.02-.01-.03-.02-.05v-.03c-.07-.23-.16-.48-.24-.72-.02,0-.05-.01-.09-.02-.67-.18-2.55-.76-4.42-2.25-.07-.03-.13-.09-.19-.14-.02-.02-.04-.03-.06-.05-.02-.02-.04-.03-.06-.05-.85-.71-1.69-1.63-2.42-2.79-.13-.21-.55-.91-.95-1.97-.01-.02-.02-.05-.03-.08v-.05c-.37-1-.7-2.29-.78-3.79,0,0,0-.02,0-.03v-.07c-.05-.74-.02-1.78.28-2.99.2-.83.75-2.93,2.56-4.69.35-.34,3.2-3.03,7.31-2.48,2.73.36,4.49,1.96,5.1,2.56.17-.69.43-1.63.86-2.7.57-1.42,1.37-3.44,3.13-5.37,2.01-2.2,4.28-3.15,5.52-3.66,1.66-.68,3.15-.99,4.22-1.13-2.26-1.03-4.25-1.52-5.67-1.78-.76-.14-3.34-.56-6.71-.27-3.14.28-5.4,1.05-5.87,1.22-.99.34-2.7.96-4.65,2.26-2.17,1.45-3.5,3-3.97,3.58-1.33,1.62-2.05,3.1-2.2,3.4-.4.84-.76,1.77-.97,2.36-.36.95-.33.93-.96,2.6-.9,2.41-.81,2.02-.99,2.54-.05.14-.19.58-.48,1.14-.04.08-.08.15-.1.19"/>
      <path class="st27" d="M111.89,14.84c.78.29,1.87.8,3.01,1.68,1.99,1.55,2.9,3.37,3.37,4.33.57,1.16,1.69,3.44,1.39,6.47-.08.88-.31,2.84-1.73,4.8-.53.74-1.49,1.83-2.97,2.64-3.16,1.73-6.41.9-7.21.67"/>
    </g>
  </g>
  <g id="Neck">
    <path class="st31" d="M104.9,29.39c.47.52,1.24,1.24,2.35,1.85,1.24.67,2.37.91,3.1,1.01.14.65.41,1.63,1,2.7.71,1.3,1.43,1.9,2.65,3.36.58.7,1.4,1.73,2.29,3.09-.1.21-.23.51-.38.89-.41,1.07-.61,1.98-.8,3.01-.22,1.21-.48,2.64-.61,4.66-.07,1.08-.11,2.46-.05,4.05-.24-.45-.59-1.15-.99-2.02-.67-1.48-.69-1.8-1.18-2.59-.43-.69-.94-1.5-1.93-2.07-.48-.27-.89-.37-1.69-.56-.75-.18-1.82-.38-3.15-.47.06-.4.15-.98.24-1.69.1-.84.12-1.27.24-2.96.17-2.41.18-2.4.19-2.92.01-1.09-.04-1.99-.09-2.59-.1-1.19-.28-2.16-.47-3.25-.16-.92-.4-2.11-.72-3.5Z"/>
  </g>
  <g id="Left_Arm">
    <path id="Lower_Left_Arm" class="st8" d="M73.8,130.76c.08-.08.35.14,1.32.61,0,0,.96.47,1.88.8.34.12,1.49.54,2.73.56,1.56.03,3.46-.54,4.85-1.98,1.15-1.2,1.53-2.57,1.65-3.01.14-.51.19-.96.21-1.28.46.77,1.13,1.94,1.86,3.4.69,1.39,1.17,2.64,2.21,5.04.54,1.24,1.31,3.06,2.21,5.32-1.06.72-1.94,1.3-2.54,1.69-1.13.74-1.53,1-2.16,1.46-.91.67-1.62,1.28-2.07,1.69-.54-.5-1.34-1.27-2.26-2.26-.73-.78-1.31-1.46-2.45-2.81-1.08-1.27-1.17-1.41-2.26-2.7-1.25-1.48-1.32-1.51-2.31-2.68-1.6-1.9-3.07-3.65-2.87-3.86h0Z"/>
    <g id="Upper_Left_Arm">
      <path class="st30" d="M94.5,61.63c-.77.54-1.87,1.35-3.11,2.45-1.32,1.17-2.69,2.38-3.95,4.24-1,1.47-1.49,2.69-2.07,4.14-.41,1.02-.75,2.02-1.98,6.96-.78,3.14-1.17,4.72-1.41,5.93-.57,2.91-.42,3.07-1.04,6.4-.49,2.62-.98,4.65-1.32,6.02-.65,2.67-1.24,4.68-1.41,5.27-.34,1.17-.39,1.27-2.64,8-.77,2.3-1.15,3.47-1.79,5.27-.5,1.41-.92,2.58-1.22,3.39.28-.56.96-1.74,2.35-2.64,1.31-.85,2.56-.98,3.11-1.04.39-.04,2.02-.16,3.86.66,1.61.72,2.53,1.78,3.01,2.35,1.03,1.22,1.54,2.44,1.79,3.2.1-.66.27-1.61.56-2.73.48-1.82,1.02-3.05,1.69-4.61,1.58-3.69.42-1.21,2.45-5.84,1.48-3.38,2.06-5.22,3.95-8.75.89-1.65.74-1.18,1.79-3.11,1.36-2.51,1.88-3.81,3.48-6.87,1.12-2.14,1.04-1.8,1.32-2.45,1.99-4.63.46-9.69-.38-12.42-.79-2.56-1.69-4.29-3.11-7.06-1.47-2.86-2.88-5.15-3.93-6.76Z"/>
    </g>
    <g id="Left_Elbow">
      <path class="st30" d="M74.2,118.04c-.24.1-.63.3-1.01.69-.43.45-.62.92-.71,1.18.34-.12.69-.26,1.06-.42.2-.09.38-.18.56-.26.03-.39.06-.79.09-1.18h.01Z"/>
      <path class="st30" d="M85.73,120.56c-.11.34-.21.68-.32,1.02.14.11.28.23.42.37.33.32.59.65.78.94.04-.22.09-.72-.13-1.3-.22-.56-.57-.89-.75-1.03Z"/>
      <path class="st29" d="M74.1,117.93v3.41c.21-.21.52-.49.94-.74.19-.11.84-.5,2.01-.71.64-.12,1.79-.32,3.21.04.51.13,2.32.6,3.6,2.26.29.37.48.71.6.95.47-.79.94-1.58,1.41-2.36-.1-.17-.23-.41-.41-.69s-.51-.81-.94-1.31c-.62-.72-1.25-1.14-1.62-1.39-.4-.26-1.16-.76-2.28-1.08-.87-.25-1.58-.28-1.84-.28-.45,0-1.3-.02-2.31.34-1.17.41-1.96,1.12-2.38,1.57h0Z"/>
      <path class="st8" d="M85.56,125.44h.46c.14.34.27.68.41,1.02-.29-.34-.58-.68-.87-1.02Z"/>
      <path class="st8" d="M74.6,129.86c-.13.15-.26.3-.39.46.26.15.52.3.79.46-.13-.3-.26-.61-.39-.91h-.01Z"/>
      <path class="st29" d="M84.48,123.28c.52,1.19,1.04,2.37,1.55,3.56,0,.4-.04,1.08-.38,1.81-.33.71-.77,1.13-1.18,1.51-1.26,1.17-2.6,1.61-3.01,1.74-1.55.48-2.84.34-3.25.28-1.54-.21-2.64-.84-3.2-1.22-.17-.35-.35-.69-.52-1.04.37.19.8.39,1.27.56.52.2,1.17.44,2.02.56.32.05,1.27.16,2.47-.05.88-.15,1.69-.29,2.52-.89,1.07-.77,1.49-1.83,1.69-2.35.32-.8.4-1.5.42-1.94.06-1.14-.23-2.04-.42-2.54h.02Z"/>
      <path class="st28" d="M84.77,126.33c-.42,2.96-3.49,4.91-6.35,4.83-2.73-.07-5.55-2-5.96-4.76-.51-3.36,2.71-6.76,6.32-6.67,3.41.08,6.48,3.27,6,6.6h-.01Z"/>
      <ellipse class="st30" cx="78.61" cy="125.52" rx="4.27" ry="3.95"/>
      <path class="st5" d="M80.56,125.72c-.06,1.02-.96,1.83-1.99,1.81-1.02-.02-1.9-.85-1.91-1.89-.01-1.07.9-1.94,1.95-1.94s2.01.93,1.95,2.02Z"/>
      <path class="st7" d="M78.91,125.61c0,.17-.13.34-.3.34-.18,0-.33-.16-.33-.34s.15-.35.33-.34c.17,0,.3.18.3.34Z"/>
    </g>
  </g>
  <g id="Left_Leg">
    <g id="Upper_Left_Leg">
      <path class="st24" d="M78.76,159.24c3.96-6.2,10.23-8.26,13.45-9.33,8.69-2.85,16.09-1.1,29.69,2.12,3.17.76,10.99,2.73,20.68,6.66,5.19,2.1,8.99,4.07,16.61,7.98,11.73,6.03,17.71,9.14,22.47,13.55,4.69,4.33,7.73,8.71,9.55,11.7-6.05-.13-10.73.57-13.92,1.25-2.59.55-4.56,1.18-7.87,1.49-4.42.42-7.75-.04-9.33-.23-.68-.08-8.3-.33-23.56-.85-16.39-.55-15.67-.18-20.48-.71-8.8-.97-15.2-2.64-18.67-3.65-11.2-3.26-16.79-4.9-19.71-9.59-3.82-6.16-2.56-14.7,1.07-20.39h0Z"/>
    </g>
    <g id="Left_Shoe">
      <path class="st24" d="M82.3,237.18c-1.99-2.99-4.19-4.87-5.73-5.98-1.11-.81-2.59-1.85-4.79-2.6-1.44-.49-4.61-1.58-8.34-.47-2.75.81-4.48,2.42-5.12,3.02-1.29,1.23-2.01,2.41-2.49,3.23-.29.49-1.54,2.66-2.26,6.23-.36,1.77-.4,3.29-.48,6.32-.09,3.25.03,5.86.14,8.18.08,1.75.18,3.21.25,4.24,1.29-2.38,2.24-4.36,2.88-5.74.84-1.81,1.11-2.54,1.96-4.13,1.31-2.45,2.26-3.72,2.81-4.39.72-.89,1.39-1.57,1.88-2.06-.15.94-.34,2.28-.46,3.87-.33,4.31.04,7.53.22,8.85.39,2.91.92,4.4,1.12,4.93.42,1.13.85,2.23,1.8,3.41,1.18,1.45,2.49,2.18,3.4,2.67,2.3,1.25,4.39,1.5,5.79,1.66.61.07,2.6.26,5.15-.13,1.3-.2,2.38-.5,3.2-.77-.74-.26-1.86-.68-3.2-1.25-2.56-1.12-3.87-1.69-4.97-2.79-1.47-1.46-2.04-3.1-2.24-3.73-.73-2.21-.47-4.05-.26-5.58.28-1.96.85-3.38,1.32-4.51.83-2.03,1.74-3.43,2.7-4.91.21-.32.4-.61.6-.9.81-1.18,1.48-2.05,2.25-3.04.83-1.06,1.8-2.28,2.89-3.63Z"/>
      <path class="st17" d="M71.36,228.88c1.16.43,2.45.99,3.82,1.73,1.75.94,3.2,1.95,4.36,2.88-.78.82-1.99,2.1-3.52,3.66-2.48,2.53-2.85,2.81-3.61,3.78-1.86,2.34-2.75,4.54-3.25,5.8-.49,1.24-1.4,3.58-1.66,6.79-.15,1.93-.32,4.1.59,6.69.87,2.46,2.27,3.99,2.55,4.3,2.9,3.12,6.73,3.67,8,3.79-.51.05-1.13.09-1.84.09-.24,0-.79,0-1.5-.05-.67-.05-1.64-.11-2.77-.37-.55-.12-1.8-.44-3.26-1.2-1.01-.52-2.02-1.03-3-2.1-.59-.64-.92-1.21-1.33-1.9-.39-.68-.97-1.8-1.41-3.28-.36-1.22-.51-2.23-.65-3.85-.26-3.01-.28-5.34-.29-5.87-.02-1.84-.05-4.54-.14-7.97.29-1.59.57-3.18.85-4.76.19.16.44.39.77.61.32.23.61.44,1,.63.26.12.8.39,1.57.46.14.02.67.06,1.36-.09,1.24-.27,2.02-.97,2.2-1.14.75-.69,1.06-1.45,1.22-1.82.18-.42.26-.81.41-1.59.12-.58.21-1.05.25-1.7.03-.49.06-1.03-.06-1.73-.08-.43-.24-1.08-.64-1.79h-.02Z"/>
      <path class="st21" d="M60.35,229.59c.06.43.17,1.01.34,1.69.16.62.43,1.72,1.04,3.02.19.41.48.93,1.06,1.98.34.62.63,1.12.83,1.46"/>
    </g>
    <g id="Left_Ankle">
      <path class="st1" d="M73.21,230.05c.75-3.51,4.09-5.77,7.47-5.05,3.38.72,5.52,4.14,4.77,7.65-.43,2-1.83,3.86-3.83,4.69-.44.18-1.92.78-3.64.35-2.84-.71-5.55-4-4.77-7.65Z"/>
      <ellipse class="st9" cx="79.34" cy="231.35" rx="4.08" ry="3.86" transform="translate(-163.45 260.85) rotate(-78)"/>
      <circle class="st24" cx="79.34" cy="231.35" r="1.85" transform="translate(-23.75 9.56) rotate(-6)"/>
    </g>
    <g id="Left_Knee">
      <path class="st17" d="M167.47,185.51c.74-.58,1.54-1.17,2.39-1.74,2.85-1.92,5.63-3.26,8.11-4.19,2.71-1.03,3.89-1.55,4.33-1.68,1.56-.48,2.9-.75,3.88-.91.55.78,1.36,2.13,1.68,3.97.28,1.63.04,2.9-.21,4.36-.2,1.21-.62,2.93-1.54,4.87-.67.11-1.58.22-2.65.23-1.19.01-2.21-.09-3.27-.26-.96-.16-3.27-.57-6.42-1.73-1.7-.63-3.88-1.54-6.31-2.92h0Z"/>
      <ellipse class="st2" cx="183.18" cy="183.89" rx="6.85" ry="5.68" transform="translate(-51.85 73.74) rotate(-20)"/>
      <ellipse class="st11" cx="183.18" cy="183.89" rx="4.84" ry="4.31" transform="translate(-51.85 73.74) rotate(-20)"/>
      <ellipse class="st23" cx="183.2" cy="183.9" rx="3.04" ry="2.3" transform="translate(-51.85 73.75) rotate(-20)"/>
      <ellipse class="st15" cx="183.2" cy="183.9" rx="1.13" ry=".89" transform="translate(-51.85 73.75) rotate(-20)"/>
      <path class="st24" d="M166.14,185.65c1.77.67,3.21,1.23,4.2,1.62,2.54.99,3.08,1.22,4.35,1.64,1,.34,2.31.76,4.08,1.16,1.46.32,2.69.59,4.34.63,1.54.04,2.81-.13,3.67-.31-.88.83-2.18,1.99-3.86,3.23-1.37,1.02-2.43,1.68-4.28,2.83-4.21,2.61-6.31,3.92-6.31,3.92-4.38,2.54-8.18,3.84-13.78,5.73-2.16.73-.97.27-10.58,3.23-6.74,2.08-9.05,2.84-9.98,3.15-3.19,1.05-3.22,1.11-9.19,3.17-5.42,1.87-9.65,3.28-12.44,4.21-5.43,1.82-8.15,2.73-9.7,3.2-1.89.59-5.64,1.74-10.46,3.4-1.97.68-3.98,1.39-6.38,2.83-1.82,1.09-3.05,2.05-3.74,2.67-.34.31-.62.58-.81.77.14-1.17-.01-2.11-.14-2.7-.16-.69-.4-1.67-1.17-2.63-.55-.69-1.14-1.07-1.58-1.34-.96-.61-1.9-.91-2.6-1.05.98-.59,2.24-1.36,3.67-2.33.44-.3,2.2-1.49,4.53-3.29,1.11-.86,1.95-1.56,3.57-2.92,3.21-2.68,3.22-2.78,4.84-4.1,1.91-1.55,3.36-2.58,5.58-4.16,1.62-1.16,3.27-2.33,5.57-3.79,1.15-.73,3.07-1.96,5.71-3.41,1.48-.82,2.72-1.43,5.18-2.65,3.36-1.67,5.05-2.5,6.9-3.29,3.2-1.36,5.75-2.17,6.62-2.45,1.1-.35,2.79-.8,6.17-1.7,1.91-.51,3.18-.86,4.97-1.31,2.63-.67,4.03-1.02,5.93-1.41,1.68-.35,1.56-.27,5.32-.94,4.22-.76,4.7-.91,6.52-1.16,2.1-.28,3.91-.41,5.29-.47v-.02Z"/>
    </g>
  </g>
  <g id="Torso">
    <path class="st25" d="M111.35,47.94c-.39-.25-1.07-.59-1.74-.85-1.03-.4-1.88-.56-2.21-.61-1.08-.18-2.11-.35-3.34,0-.6.17-1.71.49-2.31,1.46-.23.37-.32.73-.47,1.36-.16.65-.15.96-.28,1.88,0,0-.08.61-.28,1.65-.26,1.34-1.13,3.13-2.31,4.66-1.74,2.26-2.68,2.08-4.09,4.38-.34.55-.59,1.11-1.08,2.21-.98,2.18-1.64,3.67-2.02,5.41-.22,1.02-.82,3.93.24,7.29.65,2.08,1.66,3.44,2.64,4.75.73.99,2.33,3.1,5.04,4.89,1.71,1.13,2.33,1.12,4.28,2.59.77.58,1.77,1.34,2.82,2.54.64.73,1.45,1.79,2.73,4.42.8,1.65,2.12,4.41,3.15,8.38.66,2.56.95,4.79,1.13,6.16.09.7.23,1.77.28,2.59.3,4.68-1.68,8.74-2.26,9.88-.78,1.55-2.75,3.61-6.59,7.72-1.68,1.79-3.09,3.25-4.05,4.24-.1.61-.28,1.53-.56,2.64-.26,1-.4,1.37-.94,3.2-.6,2.04-.72,2.62-.75,3.39-.04.97-.06,1.93.56,2.35.4.27.95.15,1.69,0,.31-.06.72-.18,1.57-.56,1.05-.48,1.79-.92,1.82-.94,1.61-.98,3.04-1.98,3.86-2.54.54-.37,1.65-1.06,3.86-2.45,2.3-1.44,3.46-2.17,4.05-2.45,1.33-.64,2.88-1.38,4.99-1.6,2.17-.23,3.84.23,5.36.66,2.28.65,4.13,1.79,6.49,3.2.52.31.94.57,1.22.75.71-2.69,1.33-4.94,1.79-6.59.91-3.25,1.5-5.17,2.16-7.17,1.34-4.02,1.94-5.11,2.45-5.91.35-.56.85-1.26,1.6-2.54.84-1.44,1.27-2.18,1.6-3.01.96-2.43.67-4.68.47-6.31-.06-.45-.3-2.28-1.22-4.52-.55-1.34-1.18-2.42-1.69-3.2.5-.18,1.21-.5,1.88-1.13.46-.43.67-.78,1.24-1.6.36-.52.89-1.26,1.59-2.14.39-.7.78-1.49,1.13-2.38,1.03-2.64,1.3-5.06,1.32-6.87-.23-.73-.58-1.72-1.13-2.82-.19-.38-.74-1.47-1.88-3.11-1.06-1.51-1.6-2.02-2.45-3.11-.77-.99-.61-.95-3.01-4.8-1.19-1.91-1.89-3-2.98-4.31-.72-.86-1.25-1.4-1.91-1.9-.6-.46-1.47-1.12-2.73-1.51-1.58-.48-2.63-.17-2.82-.66-.08-.2-.02-.55.65-1.22-.38.03-.93.06-1.59,0-1.33-.13-2.28-.53-3.39-1.04-2.67-1.21-4-1.82-4.89-2.45-.32-.23-1.71-1.23-3.2-2.92-.68-.77-1.85-2.12-2.82-4.14-1.33-2.76-1.1-4.32-2.64-5.32l-.03.03Z"/>
    <path class="st21" d="M113.54,111.42c.17-.58.39-1.38.55-2.36.25-1.49.27-2.67.28-3.02.02-2.48-.49-2.9-.06-4.15.13-.39.55-1.6,1.59-1.99,1.22-.45,2.52.47,3.05.84,2.28,1.62,2.82,4.38,2.98,5.19.54,2.74,0,5.92-.06,6.27-.14.8-.14,1.19-.15,1.96-.01,1,.08,1.58.3,2.14.18.44.33.82.71,1.06.68.42,1.56.07,1.75,0,1.1-.44,1.36-1.37,2.26-2.65.15-.21,1.45-2.05,3.55-3.35.69-.43,1.99-1.21,3.85-1.38,1.02-.09,2.59-.24,3.92.75,1.07.79,1.49,1.95,1.76,2.71.17.47.33,1.07.45,2.49.09,1.1.15,2.65-.02,4.55"/>
    <path class="st12" d="M102.5,47.04c.75-.54,1.55-.55,2.73-.56.67,0,1.32.09,2.64.28.93.14,1.22.22,1.44.28.5.16,1.19.37,1.84.92.65.55.9,1.15,1.27,1.98,0,0,.35.79,2.12,4.16,1.23,2.35,1.65,2.89,1.84,3.11.42.49,1.11,1,2.47,2.05,1.28.98,1.91,1.47,2.61,1.91,1.41.88,2.54,1.35,3.53,1.76,1.21.5,1.83.76,2.47.78.45.01.95-.04,1.98,0,.42.02.76.04.99.07-.44.29-1,.69-1.62,1.2-.49.4-1.54,1.29-2.75,2.68-1.48,1.7-2.22,2.55-2.82,3.95-.85,1.99-.85,3.76-.85,4.8,0,1.51.27,2.65.49,3.6.27,1.17.56,2.4,1.34,3.81.79,1.43,1.66,2.3,2.68,3.32.7.7,1.8,1.78,3.53,2.82.62.38,1.97,1.13,3.81,1.69,1.76.54,2.3.59,2.75.49,1.14-.25,1.86-1.1,2.19-1.55.68-1.28,1.05-2.39,1.27-3.18.36-1.29.46-2.34.64-4.09.15-1.54.05-1.37.22-3.01.11-1.07.2-1.54.13-2.36-.08-1.03-.31-1.48-.17-1.56.12-.07.5.16,2.99,3.68,1.92,2.71,2.4,3.57,2.78,4.33.64,1.28.95,1.92,1.13,2.82.37,1.89-.13,3.38-.8,5.36-.49,1.46-1.27,3.7-3.25,5.98-1.13,1.31-2.28,2.2-3.11,2.75.38.61.87,1.47,1.34,2.54.37.85,1.04,2.54,1.41,4.8.22,1.32.49,3,.2,4.9-.5,3.32-2.48,5.67-3.73,6.89.14-.95.27-2.38.07-4.09-.25-2.15-.51-4.44-2.26-5.65-1.24-.85-2.63-.81-3.53-.78-2.08.07-3.57.99-4.24,1.41-.65.41-2.6,1.65-3.88,3.88-.33.57-.77,1.49-1.79,2.05-.34.19-.92.49-1.53.28-.12-.04-.62-.24-1.06-1.27-.25-.6-.45-1.44-.14-4.09.14-1.21.3-1.34.35-2.33.06-.97-.02-1.73-.07-2.26-.13-1.31-.24-2.03-.56-2.96-.17-.49-.74-1.98-2.12-3.39-.73-.75-1.25-1.24-2.12-1.41-.24-.05-1.22-.24-2.05.35-.59.43-.8,1.05-.92,1.41-.2.6-.18,1.07-.14,1.91.14,2.86.16,2.88.14,3.32-.04.95-.19,1.69-.35,2.54-.16.83-.34,1.53-.49,2.05-.21-1.53-.54-3.56-1.13-5.93-.41-1.66-1-4-2.19-6.85-1.16-2.79-1.88-4.5-3.39-6.35-.96-1.17-1.36-1.33-6.49-5.29-4.34-3.35-4.86-3.86-5.44-4.52-1.1-1.27-2.81-3.29-3.6-6.42-.77-3.07-.26-5.61,0-6.85.49-2.3,1.36-3.94,1.91-4.94.99-1.82,1.64-3.06,2.96-4.16.4-.34.88-.67,1.48-1.34.72-.8,1.14-1.61,1.55-2.4.21-.4.52-1,.85-1.84.48-1.21.92-2.3,1.06-3.74.11-1.11-.05-1.47.28-2.26.13-.31.42-.99,1.11-1.48h0Z"/>
    <path class="st31" d="M111.11,90.21c.33,3,2.84,5.08,3.96,7.76.33.79.53,1.62.51,2.48,0,.04.02-.03.03-.03.04-.06.06-.15.09-.21.05-.13.15-.3.15-.44.07-3.09-2.45-5.31-3.74-7.9-.37-.75-.64-1.54-.73-2.37,0,.07-.12.27-.15.34-.04.1-.13.25-.11.36h0Z"/>
    <path class="st31" d="M108.03,49.55c-1.48,2.47-2.23,5.44-1.93,8.31.09.84.26,1.66.52,2.46-.01-.04.13-.29.15-.34.03-.08.14-.27.11-.36-.5-1.55-.68-3.18-.54-4.8.07-.81.22-1.62.45-2.4s.58-1.5.99-2.19c.08-.13.12-.29.17-.43.02-.07.06-.14.07-.21,0,0,.02-.07,0-.04h.01Z"/>
    <path class="st31" d="M104.6,48.52c-1.3,2.58-1.97,5.47-1.73,8.36.07.84.21,1.66.42,2.47-.01-.05.13-.29.15-.34.03-.08.14-.26.11-.36-.81-3.11-.61-6.62.84-9.52.08-.15.13-.32.19-.48.01-.03.08-.26.02-.13h0Z"/>
    <path class="st31" d="M112.86,70.63c-.38,1.56-.11,3.15.35,4.66s1.1,3.04,1.64,4.57c1.06,3.02,2.07,6.08,3.76,8.81s3.69,4.85,5.84,7.01,4.34,4.17,6.34,6.43,3.71,4.62,4.82,7.36c.14.34.27.68.38,1.03,0-.04.13-.29.15-.34.03-.08.14-.27.11-.36-.95-2.79-2.58-5.27-4.46-7.52s-4.11-4.36-6.25-6.47-4.28-4.3-6-6.79c-1.82-2.64-2.96-5.59-4.01-8.6-.53-1.52-1.1-3.03-1.65-4.55s-1.05-3.12-.96-4.75c.02-.4.08-.79.18-1.17.01-.05-.04.05-.03.03-.04.06-.06.14-.09.21-.06.14-.11.29-.15.44h.03Z"/>
    <path class="st31" d="M101.63,66.36c-.86,4.17-1.6,8.51-.46,12.7.9,3.3,2.79,6.16,4.28,9.21.8,1.64,1.49,3.37,1.74,5.15.02.14.14.72.31.35s.1-.97.04-1.37c-.45-3.3-2.06-6.2-3.6-9.09-.77-1.44-1.53-2.9-2.09-4.43-.26-.71-.48-1.44-.62-2.18-.16-.82-.22-1.69-.2-2.44.05-2.19.51-4.35.95-6.49.09-.45.08-.97-.03-1.41-.02-.07-.06-.29-.16-.29s-.14.25-.15.3h0Z"/>
    <circle class="st34" cx="105.26" cy="64.36" r="1.17"/>
    <circle class="st34" cx="106.15" cy="71.91" r="1.17"/>
    <circle class="st34" cx="107.91" cy="79.83" r="1.17"/>
    <circle class="st21" cx="105.23" cy="64.28" r="1.36"/>
    <circle class="st21" cx="106.15" cy="71.91" r="1.36"/>
    <circle class="st21" cx="107.91" cy="79.99" r="1.36"/>
  </g>
  <g id="Right_Leg">
    <g id="Right_Thigh">
      <path class="st12" d="M133.88,158.92c3.07-2.95,6.29-4.11,10.09-5.48,6.75-2.42,12.55-2.4,17.4-2.36,5.69.06,9.89.82,13.55,1.49,10.5,1.92,18.08,5.05,22.43,6.86,3.85,1.61,6.84,2.87,10.67,5.19,5.32,3.2,9.26,6.64,11.94,9.25-5.93,1.23-10.33,2.97-13.29,4.35-2.39,1.12-4.19,2.17-7.33,3.22-4.12,1.37-7.43,1.7-9.14,1.87-17.43,1.77-26.15,2.65-33.33,3.75-.23.03-5.44.84-12.38.94-4.96.07-7.75-.25-10.55-1.75-.79-.42-3.23-1.73-4.9-4.15-4.35-6.33-1.35-17.2,4.84-23.18h0Z"/>
      <path class="st21" d="M135.8,169.98c2.25.78,5.65,1.76,9.88,2.13,3.15.28,5.2.08,9.33-.24,18.89-1.52,15.57-.66,23.95-1.54.56-.06,3.8-.41,8.01-.21,3.36.16,5.07.55,6.12.84.44.12,2.56.72,5.24,2.19,1.98,1.09,4.96,3.02,7.95,6.36"/>
      <circle class="st18" cx="148.16" cy="172.56" r="1.57"/>
      <circle class="st18" cx="156.91" cy="171.95" r="1.57"/>
      <circle class="st18" cx="164.93" cy="171.18" r="1.57"/>
      <circle class="st18" cx="172.66" cy="170.26" r="1.57"/>
      <circle class="st18" cx="180.8" cy="170.09" r="1.57"/>
      <circle class="st18" cx="188.61" cy="170.11" r="1.57"/>
    </g>
    <g id="Right_Knee">
      <path class="st17" d="M198.1,182.64c.68-.71,1.43-1.44,2.24-2.16,2.68-2.41,5.39-4.2,7.82-5.55,2.66-1.47,3.82-2.18,4.25-2.38,1.56-.72,2.9-1.2,3.89-1.51.69.72,1.72,2.02,2.33,3.88.54,1.66.47,3.01.43,4.57-.04,1.28-.22,3.13-.89,5.29-.68.22-1.6.46-2.72.63-1.22.19-2.32.23-3.43.2-1.03-.02-3.49-.12-6.93-.85-1.86-.4-4.26-1.05-6.99-2.11h0Z"/>
      <ellipse class="st0" cx="214.21" cy="178.67" rx="7.19" ry="5.96" transform="translate(-58.8 121.48) rotate(-28)"/>
      <ellipse class="st10" cx="214.21" cy="178.67" rx="5.08" ry="4.53" transform="translate(-58.8 121.48) rotate(-28)"/>
      <ellipse class="st22" cx="214.24" cy="178.67" rx="3.19" ry="2.42" transform="translate(-58.8 121.49) rotate(-28)"/>
      <ellipse class="st16" cx="214.24" cy="178.67" rx="1.19" ry=".93" transform="translate(-58.8 121.49) rotate(-28)"/>
    </g>
    <g id="Right_Lower_Leg">
      <path class="st12" d="M196.74,182.98c1.94.44,3.51.8,4.61,1.07,2.77.66,3.38.83,4.76,1.08,1.09.2,2.52.46,4.42.6,1.57.12,2.88.22,4.61.03,1.6-.18,2.9-.55,3.78-.85-.8,1-1.98,2.39-3.55,3.92-1.28,1.26-2.28,2.1-4.04,3.57-3.99,3.33-5.99,5-5.99,5-4.18,3.29-7.95,5.18-13.48,7.97-2.13,1.07-.97.43-10.52,4.91-6.7,3.15-8.99,4.28-9.92,4.73-3.16,1.56-3.19,1.63-9.09,4.64-5.36,2.73-9.56,4.82-12.32,6.2-5.39,2.68-8.08,4.02-9.62,4.75-1.88.89-5.62,2.64-10.39,5.07-1.95.99-3.93,2.03-6.22,3.87-1.73,1.39-2.87,2.58-3.51,3.32-.31.37-.56.69-.74.92-.03-1.23-.32-2.19-.55-2.79-.27-.69-.65-1.68-1.6-2.56-.68-.64-1.33-.95-1.83-1.17-1.09-.5-2.11-.66-2.87-.72.94-.76,2.13-1.75,3.48-2.96.42-.37,2.07-1.88,4.22-4.08,1.03-1.05,1.8-1.91,3.29-3.56,2.94-3.26,2.94-3.36,4.43-4.96,1.76-1.89,3.12-3.17,5.19-5.13,1.51-1.43,3.07-2.9,5.24-4.76,1.09-.92,2.91-2.49,5.43-4.38,1.42-1.06,2.62-1.88,5-3.51,3.25-2.23,4.89-3.34,6.7-4.44,3.12-1.88,5.66-3.1,6.53-3.51,1.09-.52,2.78-1.24,6.17-2.67,1.91-.81,3.18-1.36,4.98-2.08,2.64-1.08,4.04-1.64,5.96-2.33,1.71-.61,1.58-.51,5.4-1.76,4.28-1.41,4.76-1.64,6.61-2.16,2.15-.6,4.01-.99,5.43-1.25h0Z"/>
      <path class="st21" d="M206.23,184.51c-.32.48-.8,1.17-1.47,1.92-2.19,2.45-4.58,3.57-5.86,4.2-8.35,4.02-6.55,3.84-12.56,6.3-5.02,2.06-8.75,3.2-10.29,3.7-6.05,1.96-12.46,5.94-25.27,13.91-10.84,6.75-16.54,10.32-23.89,16.45-3.91,3.27-7,6.19-9.13,8.28"/>
      <ellipse class="st20" cx="174.49" cy="201.03" rx="1.52" ry="1.22" transform="translate(-73.95 105.45) rotate(-28)"/>
      <ellipse class="st19" cx="168.5" cy="204.01" rx="1.52" ry="1.22" transform="translate(-54.79 62.05) rotate(-18)"/>
      <ellipse class="st19" cx="162.56" cy="207.38" rx="1.52" ry="1.22" transform="translate(-56.13 60.38) rotate(-18)"/>
      <ellipse class="st19" cx="156.99" cy="210.75" rx="1.52" ry="1.22" transform="translate(-57.44 58.83) rotate(-18)"/>
      <ellipse class="st19" cx="151.62" cy="214.18" rx="1.52" ry="1.22" transform="translate(-58.77 57.33) rotate(-18)"/>
      <ellipse class="st19" cx="146" cy="217.57" rx="1.52" ry="1.22" transform="translate(-60.09 55.77) rotate(-18)"/>
      <ellipse class="st19" cx="140.5" cy="221.35" rx="1.52" ry="1.22" transform="translate(-61.52 54.25) rotate(-18)"/>
      <ellipse class="st19" cx="134.54" cy="225.34" rx="1.52" ry="1.22" transform="translate(-63.05 52.6) rotate(-18)"/>
      <ellipse class="st19" cx="129.25" cy="229.33" rx="1.52" ry="1.22" transform="translate(-64.54 51.16) rotate(-18)"/>
    </g>
    <g id="Right_Foot">
      <path class="st12" d="M117.1,248.8c-2.51-2.82-5.07-4.45-6.83-5.38-1.28-.68-2.96-1.54-5.35-2.01-1.57-.3-5.03-.96-8.74.73-2.74,1.25-4.31,3.17-4.88,3.89-1.17,1.47-1.73,2.79-2.11,3.72-.23.55-1.22,2.99-1.44,6.8-.11,1.89.07,3.48.43,6.64.38,3.38.89,6.08,1.34,8.49.34,1.8.65,3.31.88,4.37.99-2.67,1.7-4.86,2.15-6.39.6-2.01.79-2.81,1.44-4.58,1-2.74,1.82-4.2,2.28-4.97.62-1.03,1.21-1.84,1.65-2.41-.02,1.01-.02,2.41.08,4.09.28,4.52,1.14,7.82,1.52,9.17.83,2.96,1.61,4.44,1.88,4.96.61,1.12,1.2,2.2,2.37,3.28,1.44,1.34,2.91,1.9,3.92,2.28,2.59.96,4.79.92,6.25.88.64-.02,2.74-.1,5.34-.89,1.31-.4,2.4-.86,3.2-1.26-.81-.16-2.03-.43-3.51-.83-2.83-.79-4.27-1.2-5.57-2.18-1.74-1.31-2.56-2.93-2.87-3.55-1.08-2.19-1.08-4.15-1.08-5.77,0-2.07.39-3.64.71-4.89.57-2.23,1.31-3.81,2.09-5.5.19-.41.37-.78.56-1.15.69-1.37,1.25-2.35,1.84-3.36.96-1.66,1.78-3.05,2.45-4.19Z"/>
      <path class="st17" d="M104.52,241.78c1.26.28,2.69.67,4.22,1.24,1.95.73,3.61,1.56,4.96,2.36-.69.96-1.76,2.48-3.12,4.32-2.21,2.99-2.55,3.34-3.21,4.46-1.59,2.7-2.2,5.13-2.54,6.51-.33,1.36-.94,3.92-.73,7.31.12,2.03.26,4.3,1.6,6.87,1.27,2.44,2.94,3.82,3.28,4.09,3.48,2.82,7.54,2.83,8.87,2.78-.51.12-1.15.26-1.9.37-.26.03-.83.11-1.57.16-.71.05-1.71.12-2.94.02-.59-.04-1.93-.2-3.57-.77-1.12-.38-2.25-.78-3.43-1.74-.72-.59-1.14-1.12-1.65-1.79-.51-.66-1.28-1.73-1.94-3.2-.56-1.21-.85-2.25-1.23-3.92-.71-3.09-1.07-5.51-1.16-6.06-.29-1.9-.72-4.71-1.32-8.26.07-1.69.12-3.38.19-5.08.22.14.52.33.89.53s.69.36,1.13.51c.29.09.9.28,1.69.24.15-.01.71-.03,1.4-.29,1.24-.46,1.96-1.29,2.13-1.5.68-.84.9-1.66,1-2.07.12-.47.15-.88.19-1.71.04-.62.08-1.12.01-1.8-.04-.51-.08-1.08-.32-1.79-.15-.44-.42-1.08-.94-1.77h0Z"/>
      <path class="st21" d="M93.17,244.12c.13.43.33,1.02.61,1.72.25.62.71,1.73,1.52,2.99.26.4.63.9,1.39,1.9.44.59.82,1.07,1.07,1.39"/>
    </g>
    <g id="Right_Ankle">
      <ellipse class="st3" cx="113.17" cy="243.18" rx="6.81" ry="6.57" transform="translate(-137.31 339.11) rotate(-86)"/>
      <ellipse class="st8" cx="113.17" cy="243.18" rx="4.28" ry="4.05" transform="translate(-137.31 339.11) rotate(-86)"/>
      <circle class="st24" cx="113.17" cy="243.18" r="1.94"/>
    </g>
  </g>
  <g id="Bottom">
    <path class="st12" d="M100.34,135.76c-1.79.92-4.29,2.3-7.13,4.19s-5.84,3.88-8.87,7.01c-1.6,1.65-4.57,4.77-6.78,9.62-.96,2.1-4.69,10.62-1.77,19.76.64,1.99,1.49,4.56,3.84,6.78,2.34,2.2,5.04,3.02,8.16,3.95,2.07.62,3.49,1.06,5.42.94,2.99-.19,5.22-1.55,6.38-2.4,1.05,1.14,2.71,2.72,5.08,4.09,5.63,3.26,11.18,2.99,13.55,2.82,6.55-.47,11.17-3.21,13.93-4.89,2.2-1.34,4.41-2.69,6.56-5.27,3.62-4.34,4.46-9.02,4.92-11.71,1.1-6.51-.3-11.58-1.51-15.96-1.45-5.26-2.5-9.08-5.98-12.8-1.3-1.39-4.91-5.15-10.78-6.15-2.89-.49-5.2-.12-5.84,0-4.06.74-7.05,2.92-9.27,4.55-2.61,1.91-3.99,3.06-3.99,3.06,0,0-.87.73-4.01,2.73-.27.17-.84.53-1.65.61-.24.03-1.18.12-1.74-.28-.26-.19-.98-.87-.09-5.22.27-1.32.73-3.21,1.57-5.43Z"/>
    <path class="st21" d="M89.42,142.62c.29.61.66,1.47.94,2.54.43,1.63.46,2.93.47,3.76,0,.4.01,1.48-.19,2.92-.11.77-.25,1.48-1.22,4.8-.66,2.25-.99,3.37-1.36,4.52-.55,1.69-.72,2.04-.94,3.01-.43,1.88-.47,3.37-.47,3.67-.05,2.97.81,5.33,1.32,6.49,1.06,2.44,2.45,3.92,3.91,5.46,1.51,1.59,4.01,3.85,7.72,5.84-1.54-1.71-2.44-3.33-2.96-4.47-.68-1.48-1.01-2.73-1.32-3.95-.24-.94-.61-2.45-.8-4.47-.12-1.27-.23-3.45.14-6.12.33-2.38.89-4.12,1.22-5.13.56-1.7,1.3-3.91,2.92-6.4,1.56-2.41,3.17-3.88,5.04-5.6,1.24-1.14,2.51-2.3,4.47-3.48,2.16-1.3,3.96-1.93,4.38-2.07.61-.21,2.82-.92,5.84-1.08.9-.05,3.07-.11,5.79.42,1.46.29,4.1.83,6.87,2.54,1.45.9,2.27,1.71,2.49,1.93.85.85,1.35,1.62,2.12,2.78.46.69,1.06,1.66,1.69,2.87"/>
    <path class="st17" d="M139.91,168.69c-.11,7.58-4.67,12.48-5.93,13.74-.88.88-7.18,6.99-15.91,5.93-9.19-1.12-17.45-9.61-17.04-19.76.42-10.12,9.24-16.41,16.38-18.07,1.41-.33,8.71-1.99,15.15,2.64,7.34,5.27,7.36,14.24,7.34,15.53h.01Z"/>
    <path class="st13" d="M136.34,172.36c-.77,7.13-6.79,13.4-14.4,13.64-8.16.26-14.92-6.5-15.44-14.26-.58-8.76,6.94-16.9,15.86-16.38,8.53.5,14.86,8.71,13.98,17Z"/>
    <path class="st3" d="M133.04,170.2c.26,6.04-4.46,11.27-10.4,11.65-6.35.41-11.87-4.87-11.86-11.21.01-5.96,4.91-11.12,11.04-11.17,5.99-.05,10.97,4.79,11.22,10.73h0Z"/>
    <path class="st8" d="M114.55,170.67c0,3.93,2.95,7.85,7.01,8.14,4.39.32,8.18-3.73,8.18-8.14s-3.79-8.46-8.18-8.14c-4.06.29-7.01,4.21-7.01,8.14Z"/>
    <circle class="st24" cx="122.15" cy="170.67" r="4.95"/>
    <circle class="st17" cx="122.15" cy="170.67" r="2"/>
  </g>
  <g id="Right_Arm">
    <path id="Right_Lower_Arm" class="st12" d="M180.61,125.43c-.01.41-.06.96-.17,1.59-.23,1.37-.65,2.42-.87,2.93-.46,1.04-.99,1.77-2.04,3.19-.5.69-1.22,1.61-2.13,2.66.64.41,1.56.98,2.66,1.65,2.01,1.23,3.78,2.31,5.98,3.51,2.48,1.37,4.36,2.27,4.85,2.5,1.29.62,2.28,1.05,2.98,1.36,1.36.59,3.01,1.31,5.17,2.1,1.87.68,1.87.6,3.75,1.29,1.4.52,2.4.95,3.94,1.6,2.23.95,2.49,1.1,4.7,2.05,3.29,1.42,3.21,1.28,5.26,2.21,1.72.77,3.21,1.45,5.03,2.52,1.93,1.12,3.45,2.21,4.51,3.03-.12-.51-.26-1.24-.3-2.16-.01-.62-.03-.95.09-1.32.33-1.04,1.28-1.57,1.75-1.85.82-.47,1.61-.59,2.15-.63-3.15-2.42-5.68-4.44-7.43-5.85-1.66-1.34-2.38-1.94-3.63-2.89-1.2-.91-3.69-2.75-6.84-4.69-2.8-1.72-2.81-1.49-10.85-5.78-2.94-1.57-3.55-1.92-5.87-3.12-2.13-1.1-4.2-2.17-6.93-3.42-2.37-1.09-4.36-1.93-5.79-2.5h.01Z"/>
    <g id="Upper_Right_Arm">
      <path class="st12" d="M136.24,66.73c-.39.1-1.33.36-2.38.98-.5.3-1.83,1.15-2.94,2.75-1.22,1.77-1.49,3.47-1.68,4.67-.18,1.19-.44,2.91.23,4.99.73,2.27,2.13,3.63,2.85,4.32,1.23,1.18,2.06.89,3.91,2.44.79.67,1.6,1.49,1.77,1.65.67.68,1.19,1.28,1.66,1.83,1.45,1.73,2.53,3.26,2.91,3.8,3.32,4.7,2.81,3.86,4.37,6.14,1.42,2.08,2.37,3.59,4.27,6.6,3.44,5.44,2.9,4.82,5.1,8.2,1.48,2.28,2.45,3.68,3.8,6.12.85,1.53,1.48,2.81,1.89,3.66.98-.04,1.19-.16,1.21-.25.02-.2-.79-.26-1.01-.77-.23-.52.3-1.21.92-1.98.38-.48,1.12-1.32,2.67-2.46,1.43-1.06,2.09-1.29,2.44-1.4.59-.18,1.44-.42,2.1.03.29.2.45.48.54.67l.32-.72c-.66-.85-1.49-1.96-2.4-3.28-.24-.34-.96-1.42-1.95-3.04-1.13-1.86-1.88-3.25-2.36-4.13-1.42-2.6-.99-1.69-3.95-6.99-2.47-4.42-3.71-6.63-4.65-8.48-1.32-2.63-2.18-4.54-3.13-6.67-1.28-2.86-1.94-4.53-2.55-6.37-.28-.84-.49-1.55-.63-2.05.03-.49.04-1.16-.09-1.96-.3-1.98-1.19-3.33-1.58-3.91-1.18-1.76-2.61-2.69-3.14-3.01-1.55-.94-2.92-1.18-4.07-1.38-1.23-.22-2.7-.46-4.49,0h.03Z"/>
      <path class="st21" d="M135.09,86.05c.82.07,2,.23,3.36.69,1.11.38,1.88.81,3.15,1.52,1.06.59,2,1.1,3.1,1.94.35.26,1.73,1.31,3.35,3.12.61.69,1.3,1.51,3.11,4.24.99,1.47,1.75,2.68,3.53,5.53,2.02,3.23,3.03,4.84,3.6,5.82,1.41,2.4,1.65,2.99,3.27,5.83,1.3,2.28,2.4,4.11,3.13,5.3"/>
      <path class="st21" d="M149.59,75.63c-.24.63-.52,1.55-.61,2.7-.09,1.03,0,1.86.11,2.57.47,3.08,1.59,5.85,1.64,5.99,1.16,2.83,2.3,5.04,3.41,7.13.9,1.67,1.9,3.49,5.15,9.11,2.11,3.64,2.56,4.4,4.01,6.91,2.07,3.59,3.72,6.52,4.79,8.46"/>
      <circle class="st6" cx="139.48" cy="76.07" r="6.98" transform="translate(49.25 206.84) rotate(-84)"/>
      <ellipse class="st8" cx="139.48" cy="76.07" rx="3.98" ry="3.81" transform="translate(49.25 206.84) rotate(-84)"/>
      <circle class="st24" cx="139.46" cy="76.26" r="1.28"/>
    </g>
    <g id="Right_Hand">
      <path class="st12" d="M230.28,155.25c.06.3.12.75.15,1.29.04.86.07,1.48-.23,2.15-.11.25-.44,1.01-1.24,1.43-.96.5-1.96.18-2.42.03-.6-.19-1.03-.49-1.29-.7.53.73,1,1.28,1.34,1.66.61.67,1.07,1.07,1.36,1.84.1.27.06.26.2.74,0,0,.28.88.71,1.73.52,1,1.33,1.77,2.37,2.75,1.67,1.61,2.51,2.42,2.7,2.65.63.76,1.73,2.12,2.26,4.17.14.56.38,1.52.27,2.77-.03.3-.17,1.71-1.01,3.25-.54.98-.8,1.02-1.21,2-.23.58-.52,1.3-.43,2.23.04.44.16,1.47.88,1.94.87.54,2.09-.05,2.58-.29.71-.35,1.72-1.02,3.49-3.94,1.51-2.47,2.31-3.8,2.65-5.92.06-.41.29-1.88.02-3.78-.28-2.02-.96-3.39-1.98-5.46-1-2.03-2-3.49-2.5-4.19-.18-.25-1.11-1.38-2.98-3.62-1.33-1.61-2.01-2.41-2.71-2.98-1.15-.93-2.27-1.45-3.04-1.74l.02-.03Z"/>
      <path class="st17" d="M225.2,159.93c-.12.32-.29.79-.43,1.37-.23,1.01-.26,1.92-.2,3.2.06,1.13.17,1.95.36,3.35.39,2.87.58,4.29.7,5.04.39,2.58.49,2.86.46,3.74-.05,1.52-.08,2.29-.32,3.04-.03.1-.11.53-.24,1.4-.05.31-.09.55.05.76.19.28.61.31.68.31.94.05,1.75-1.18,2.07-1.67.36-.56.77-1.35,1.09-2.68.38-1.63.18-2.22.42-4.03.25-1.88.44-2.55.71-3.14.36-.78.81-1.35,1.13-1.73-.4-.16-1.01-.47-1.59-1.02-.37-.34-.78-.85-1.54-2.48-.62-1.34-.63-1.65-.98-2.38-.39-.81-1.07-1.93-2.37-3.08h-.01Z"/>
    </g>
    <g id="Right_Elbow">
      <path class="st4" d="M162.44,123.66c.12-.26.29-.59.52-.97.51-.81,1.04-1.35,1.23-1.54.6-.59,1.16-.95,1.44-1.13.67-.41,1.21-.61,2.04-.91.41-.15.83-.3,1.4-.44.6-.14,1.12-.2,1.51-.23.16.57.33,1.15.49,1.72-.33.1-.76.24-1.26.47-1.35.62-2.25,1.44-2.73,1.92-.41.41-1.16,1.2-1.71,2.44-.14.32-.23.59-.29.78-.37-.22-.77-.48-1.19-.8-.59-.45-1.07-.91-1.46-1.32h0Z"/>
      <path class="st4" d="M179.6,127.31c.01.44,0,1.1-.2,1.87-.37,1.51-1.15,2.51-1.6,3.1-.31.4-.8.94-1.49,1.5.6.44,1.2.88,1.8,1.33.38-.17.85-.39,1.35-.71.3-.19.84-.55,1.44-1.08.6-.54.9-.8,1.18-1.24.49-.8.53-1.6.54-1.93.01-1.07-.43-1.85-.63-2.15-.8-.22-1.59-.45-2.39-.67h0Z"/>
      <path class="st28" d="M179.14,129.37c-.86,3.64-4.52,5.71-7.68,5.28-3.01-.41-5.89-3.13-6-6.62-.12-4.24,3.89-8.1,7.88-7.57,3.78.5,6.76,4.83,5.8,8.93h0Z"/>
      <ellipse class="st30" cx="172.41" cy="127.63" rx="4.95" ry="4.77" transform="translate(27.45 285.76) rotate(-84)"/>
      <path class="st5" d="M174.54,128.12c-.19,1.27-1.3,2.17-2.44,2.02-1.13-.14-2-1.29-1.88-2.57.12-1.33,1.26-2.31,2.42-2.19s2.11,1.4,1.9,2.74h0Z"/>
      <path class="st7" d="M172.71,127.79c-.02.17-.16.32-.33.31-.18-.02-.31-.19-.29-.37s.19-.33.36-.3c.17.02.28.21.26.37Z"/>
      <ellipse id="Right_Wrist" class="st14" cx="227.19" cy="157.41" rx="2.24" ry="2.75" transform="translate(-43.86 211.49) rotate(-46)"/>
    </g>
  </g>
  <path d="M93.95,60.88"/>
  <ellipse class="st3" cx="124.47" cy="23.64" rx="1.39" ry="3.07"/>
  <ellipse class="st3" cx="132.5" cy="23.46" rx="1.39" ry="3.07"/>
</svg>